<?xml version="1.0" encoding="utf-8"?>
<!-- Generator: Adobe Illustrator 27.8.1, SVG Export Plug-In . SVG Version: 6.00 Build 0)  -->
<svg version="1.1" id="Слой_1" xmlns="http://www.w3.org/2000/svg" xmlns:xlink="http://www.w3.org/1999/xlink" x="0px" y="0px"
	 viewBox="0 0 24 24" style="enable-background:new 0 0 24 24;" xml:space="preserve">
<style type="text/css">
	.st0{fill:none;stroke:#000000;stroke-width:2;stroke-linecap:round;stroke-linejoin:round;}
</style>
<g id="SearchOutline">
	<path id="Vector" class="st0" d="M21,21l-6-6 M17,10c0,0.9-0.2,1.8-0.5,2.7c-0.4,0.8-0.9,1.6-1.5,2.3c-0.7,0.7-1.4,1.2-2.3,1.5
		C11.8,16.8,10.9,17,10,17c-0.9,0-1.8-0.2-2.7-0.5c-0.8-0.4-1.6-0.9-2.3-1.5c-0.7-0.7-1.2-1.4-1.5-2.3C3.2,11.8,3,10.9,3,10
		c0-1.9,0.7-3.6,2.1-4.9C6.4,3.7,8.1,3,10,3c1.9,0,3.6,0.7,4.9,2.1C16.3,6.4,17,8.1,17,10z"/>
</g>
</svg>
