<?xml version="1.0" standalone="no"?>
<!DOCTYPE svg PUBLIC "-//W3C//DTD SVG 20010904//EN"
 "http://www.w3.org/TR/2001/REC-SVG-20010904/DTD/svg10.dtd">
<svg version="1.0" xmlns="http://www.w3.org/2000/svg"
 width="354.000000pt" height="354.000000pt" viewBox="0 0 354.000000 354.000000"
 preserveAspectRatio="xMidYMid meet">
<metadata>
Created by potrace 1.14, written by Peter Selinger 2001-2017
</metadata>
<g transform="translate(0.000000,354.000000) scale(0.100000,-0.100000)"
fill="#000000" stroke="none">
<path d="M1565 3534 c-257 -38 -481 -113 -678 -226 -373 -213 -663 -568 -801
-979 -65 -197 -81 -304 -81 -559 0 -251 10 -321 70 -517 90 -288 219 -506 424
-717 260 -266 567 -434 932 -508 99 -20 143 -23 339 -23 251 0 321 10 517 70
288 90 506 219 717 424 266 260 434 567 508 932 20 99 23 143 23 339 0 251
-10 321 -70 517 -90 288 -219 506 -424 717 -259 265 -567 434 -926 507 -88 17
-151 22 -315 24 -113 2 -218 1 -235 -1z m490 -144 c583 -98 1085 -530 1275
-1098 110 -327 112 -702 5 -1026 -190 -583 -682 -1011 -1281 -1117 -163 -29
-403 -29 -564 0 -683 120 -1221 656 -1341 1337 -29 163 -29 403 0 564 103 587
521 1080 1080 1274 262 91 540 113 826 66z"/>
<path d="M1518 2843 c-41 -4 -43 -9 -29 -63 5 -19 12 -51 15 -71 l6 -35 -60
-18 c-113 -34 -218 -117 -292 -230 l-40 -61 6 102 c3 55 13 136 21 180 21 108
22 103 -35 103 -27 0 -50 -3 -50 -7 0 -5 -7 -66 -16 -138 -22 -178 -22 -385 0
-502 l18 -91 36 5 c21 3 39 8 42 10 3 3 5 51 5 107 0 98 1 105 39 180 49 99
136 190 225 234 35 18 75 32 89 32 l24 0 -5 -187 c-2 -123 -9 -203 -18 -231
l-14 -44 -50 34 c-28 18 -65 56 -85 85 l-34 53 -33 -31 c-31 -31 -32 -33 -17
-62 24 -45 93 -115 141 -144 l43 -25 -32 -45 c-18 -24 -54 -61 -81 -80 -52
-39 -52 -46 7 -77 l36 -19 48 40 c26 22 65 67 87 100 l40 60 80 5 c140 8 240
71 294 187 22 48 26 69 26 151 0 84 -3 102 -28 152 -47 96 -129 152 -251 172
l-71 12 -10 70 c-11 69 -20 95 -33 92 -4 -1 -24 -3 -44 -5z m183 -265 c52 -15
117 -73 140 -122 37 -82 17 -208 -44 -275 -52 -56 -217 -100 -203 -53 16 54
26 165 26 305 0 177 -4 171 81 145z"/>
<path d="M1987 1963 c-17 -16 -3 -42 55 -100 l62 -63 -31 0 c-35 0 -56 -20
-47 -44 5 -14 20 -16 93 -14 l86 3 3 84 c3 90 -4 107 -37 96 -16 -5 -21 -15
-21 -43 l0 -36 -63 62 c-58 58 -84 72 -100 55z"/>
<path d="M1736 1874 c-11 -11 -16 -35 -16 -82 0 -78 8 -95 41 -90 19 2 25 10
27 37 l3 34 64 -63 c64 -63 87 -71 102 -34 4 11 -14 36 -58 80 l-63 64 31 0
c41 0 61 30 37 54 -22 22 -146 22 -168 0z"/>
<path d="M1644 1500 c-52 -16 -126 -73 -161 -124 -34 -50 -41 -84 -21 -104 22
-22 45 -13 83 33 33 41 98 85 124 85 5 0 17 -7 25 -16 19 -19 21 -82 5 -189
l-11 -75 -42 0 c-57 0 -86 -22 -86 -65 0 -39 20 -55 69 -55 17 0 31 -3 31 -7
0 -5 -11 -54 -25 -111 -14 -57 -25 -116 -25 -132 0 -35 23 -60 55 -60 60 0 74
22 110 181 14 63 28 121 31 130 3 10 20 19 47 23 23 3 51 8 63 12 19 5 22 0
27 -53 9 -88 34 -148 83 -202 59 -65 112 -86 224 -86 76 0 93 4 152 33 106 52
171 125 218 247 20 51 24 79 24 185 1 117 -1 129 -28 188 -31 67 -87 125 -142
148 -41 17 -126 18 -142 2 -30 -30 -3 -98 39 -98 37 0 79 -30 101 -73 20 -37
23 -56 23 -167 0 -117 -2 -129 -29 -187 -46 -100 -129 -163 -214 -163 -63 0
-132 58 -152 128 -12 44 -14 172 -2 172 4 0 33 23 64 50 70 62 110 138 112
213 2 75 -21 107 -76 107 -24 0 -54 -9 -74 -21 -61 -37 -142 -172 -159 -263
-8 -38 -7 -37 -109 -62 -29 -7 -29 -6 -22 27 3 19 9 73 13 121 11 153 -29 228
-124 234 -26 2 -62 -1 -79 -6z m536 -140 c0 -16 -38 -88 -50 -95 -14 -9 -13 0
11 56 20 45 39 64 39 39z"/>
</g>
</svg>
