<svg width="64" height="87" viewBox="0 0 64 87" fill="none" xmlns="http://www.w3.org/2000/svg">
<path d="M50.144 58.992C51.936 58.992 53.5147 59.472 54.88 60.432C56.2667 61.3707 57.344 62.704 58.112 64.432C58.88 66.16 59.264 68.144 59.264 70.384C59.264 73.3707 58.6773 76.0693 57.504 78.48C56.352 80.8693 54.7413 82.7467 52.672 84.112C50.624 85.4773 48.32 86.16 45.76 86.16C42.624 86.16 40.1813 85.168 38.432 83.184C36.6827 81.1787 35.808 78.3733 35.808 74.768V74.416C34.6987 74.7573 33.4507 75.024 32.064 75.216L31.136 75.344C30.5813 77.9467 29.9733 80.6453 29.312 83.44C28.864 85.296 28.0107 86.224 26.752 86.224C25.3867 86.224 24.704 85.6053 24.704 84.368C24.704 84.0907 24.7573 83.7067 24.864 83.216C25.568 80.3147 26.144 77.84 26.592 75.792L25.12 75.856C24.3733 75.856 23.84 75.728 23.52 75.472C23.2 75.216 23.04 74.7893 23.04 74.192C23.04 73.488 23.232 72.976 23.616 72.656C24 72.336 24.64 72.176 25.536 72.176C26.2187 72.176 26.816 72.1653 27.328 72.144C27.904 69.008 28.192 66.704 28.192 65.232C28.192 64.3573 28.0533 63.7067 27.776 63.28C27.52 62.8533 27.1147 62.64 26.56 62.64C25.92 62.64 25.1627 62.9493 24.288 63.568C23.4347 64.1867 22.5387 65.1253 21.6 66.384C21.3013 66.7893 20.9707 66.992 20.608 66.992C20.3093 66.992 20.0533 66.8533 19.84 66.576C19.6053 66.2773 19.488 65.9467 19.488 65.584C19.488 64.9227 19.7867 64.176 20.384 63.344C21.3227 62.0427 22.4213 60.976 23.68 60.144C24.9387 59.2907 26.4427 58.864 28.192 58.864C29.6213 58.864 30.6987 59.3653 31.424 60.368C32.1707 61.3493 32.544 62.8 32.544 64.72C32.544 66.448 32.288 68.816 31.776 71.824L32.672 71.696C33.7387 71.5253 34.9333 71.2053 36.256 70.736C36.6613 68.8587 37.2907 67.0987 38.144 65.456C38.9973 63.792 39.9573 62.4693 41.024 61.488C42.0907 60.4853 43.1467 59.984 44.192 59.984C45.024 59.984 45.6533 60.2507 46.08 60.784C46.528 61.296 46.752 62.0533 46.752 63.056C46.752 64.8907 46.208 66.6187 45.12 68.24C44.032 69.8613 42.5067 71.248 40.544 72.4C40.48 73.0613 40.448 73.7333 40.448 74.416C40.448 76.9333 40.9387 78.896 41.92 80.304C42.9227 81.6907 44.32 82.384 46.112 82.384C47.7547 82.384 49.216 81.8933 50.496 80.912C51.776 79.9093 52.768 78.5227 53.472 76.752C54.1973 74.9813 54.56 72.976 54.56 70.736C54.56 68.048 54.1653 66.032 53.376 64.688C52.608 63.344 51.392 62.5867 49.728 62.416C48.8533 62.3093 48.416 61.7547 48.416 60.752C48.416 60.24 48.576 59.824 48.896 59.504C49.2373 59.1627 49.6533 58.992 50.144 58.992ZM43.424 63.248C43.0827 63.248 42.72 63.664 42.336 64.496C41.952 65.328 41.6 66.4053 41.28 67.728C42.048 67.0453 42.6453 66.352 43.072 65.648C43.4987 64.9227 43.712 64.2293 43.712 63.568C43.712 63.3547 43.616 63.248 43.424 63.248Z" fill="#D16464"/>
<path d="M9.76 17.56C9.6 18.12 9.4 18.8 9.24 19.44C8.72 22.04 7.92 28.12 8.16 31.24C10.8 24.36 17.4 19.76 24.36 19.76C31.84 19.76 36.24 24.44 36.24 30.4C36.24 36.92 32.2 42 23.96 42C19.36 42 15.12 39.44 12.92 34.96L14.84 32.72C16.68 36.64 19.56 38.96 24 38.96C29.56 38.96 33.2 35.76 33.2 30.48C33.2 26.12 30.36 22.44 24.28 22.44C15.88 22.44 10.44 29.36 9.08 35.08C8.92 35.8 8.76 36.68 8.8 37.56C8.88 38.4 9.12 40.28 9.36 41.32L6.56 41.76C5.84 39.2 5.24 35.16 5.24 31.36C5.24 26.88 6.08 21.36 6.28 19.12C6.36 18.44 6.4 17.8 6.36 17.32L9.76 17.56ZM23.56 14.28C24.16 17.12 24.96 23.04 24.96 28.92C24.96 37.24 23.28 44.36 16.88 48.56L13.96 46.8C20.2 43.4 21.96 36.76 21.96 28.96C21.96 23.8 21.36 18.96 20.92 16.84C20.72 16 20.48 14.96 20.24 14.4L23.56 14.28Z" fill="#D16464"/>
<path d="M38.7191 43.6654C38.5316 43.4779 38.2772 43.3725 38.012 43.3725C37.7468 43.3725 37.4924 43.4779 37.3049 43.6654C37.1173 43.8529 37.012 44.1073 37.012 44.3725C37.012 44.6377 37.1173 44.8921 37.3049 45.0796L41.2548 49.0295H39.4262C39.164 49.0341 38.9141 49.1414 38.7304 49.3284C38.5466 49.5154 38.4436 49.7671 38.4436 50.0294C38.4436 50.2916 38.5466 50.5433 38.7304 50.7303C38.9141 50.9173 39.164 51.0246 39.4262 51.0292L43.6688 51.0292C43.934 51.0292 44.1883 50.9238 44.3758 50.7363C44.5633 50.5488 44.6687 50.2945 44.6687 50.0294L44.6687 45.7867C44.671 45.6539 44.6468 45.5221 44.5976 45.3987C44.5484 45.2754 44.4751 45.1631 44.3821 45.0684C44.289 44.9737 44.178 44.8985 44.0555 44.8471C43.9331 44.7958 43.8016 44.7693 43.6688 44.7693C43.5361 44.7693 43.4046 44.7958 43.2821 44.8471C43.1597 44.8985 43.0487 44.9737 42.9556 45.0684C42.8625 45.1631 42.7893 45.2754 42.7401 45.3987C42.6908 45.5221 42.6667 45.6539 42.669 45.7867L42.669 47.6153L38.7191 43.6654ZM34.4765 53.5649C34.664 53.7524 34.9183 53.8578 35.1836 53.8578C35.4488 53.8578 35.7031 53.7524 35.8907 53.5649C36.0782 53.3774 36.1836 53.123 36.1836 52.8578C36.1836 52.5926 36.0782 52.3382 35.8907 52.1507L31.9408 48.2008L33.7693 48.2008C33.9021 48.2031 34.034 48.1789 34.1573 48.1297C34.2807 48.0805 34.393 48.0072 34.4877 47.9142C34.5824 47.8211 34.6576 47.7101 34.7089 47.5876C34.7603 47.4652 34.7867 47.3337 34.7867 47.2009C34.7867 47.0681 34.7603 46.9367 34.7089 46.8142C34.6576 46.6918 34.5824 46.5808 34.4877 46.4877C34.393 46.3946 34.2807 46.3213 34.1573 46.2721C34.034 46.2229 33.9021 46.1988 33.7693 46.2011L29.5267 46.2011C29.2615 46.2011 29.0072 46.3065 28.8198 46.494C28.6323 46.6815 28.5269 46.9358 28.5269 47.2009L28.5269 51.4436C28.5314 51.7057 28.6388 51.9556 28.8258 52.1394C29.0128 52.3232 29.2645 52.4262 29.5267 52.4262C29.7889 52.4262 30.0406 52.3232 30.2276 52.1394C30.4147 51.9556 30.522 51.7057 30.5266 51.4436L30.5266 49.615L34.4765 53.5649Z" fill="#D0D0D0"/>
</svg>
