<svg width="188" height="89" viewBox="0 0 188 89" fill="none" xmlns="http://www.w3.org/2000/svg">
<path d="M50.144 60.992C51.936 60.992 53.5147 61.472 54.88 62.432C56.2667 63.3707 57.344 64.704 58.112 66.432C58.88 68.16 59.264 70.144 59.264 72.384C59.264 75.3707 58.6773 78.0693 57.504 80.48C56.352 82.8693 54.7413 84.7467 52.672 86.112C50.624 87.4773 48.32 88.16 45.76 88.16C42.624 88.16 40.1813 87.168 38.432 85.184C36.6827 83.1787 35.808 80.3733 35.808 76.768V76.416C34.6987 76.7573 33.4507 77.024 32.064 77.216L31.136 77.344C30.5813 79.9467 29.9733 82.6453 29.312 85.44C28.864 87.296 28.0107 88.224 26.752 88.224C25.3867 88.224 24.704 87.6053 24.704 86.368C24.704 86.0907 24.7573 85.7067 24.864 85.216C25.568 82.3147 26.144 79.84 26.592 77.792L25.12 77.856C24.3733 77.856 23.84 77.728 23.52 77.472C23.2 77.216 23.04 76.7893 23.04 76.192C23.04 75.488 23.232 74.976 23.616 74.656C24 74.336 24.64 74.176 25.536 74.176C26.2187 74.176 26.816 74.1653 27.328 74.144C27.904 71.008 28.192 68.704 28.192 67.232C28.192 66.3573 28.0533 65.7067 27.776 65.28C27.52 64.8533 27.1147 64.64 26.56 64.64C25.92 64.64 25.1627 64.9493 24.288 65.568C23.4347 66.1867 22.5387 67.1253 21.6 68.384C21.3013 68.7893 20.9707 68.992 20.608 68.992C20.3093 68.992 20.0533 68.8533 19.84 68.576C19.6053 68.2773 19.488 67.9467 19.488 67.584C19.488 66.9227 19.7867 66.176 20.384 65.344C21.3227 64.0427 22.4213 62.976 23.68 62.144C24.9387 61.2907 26.4427 60.864 28.192 60.864C29.6213 60.864 30.6987 61.3653 31.424 62.368C32.1707 63.3493 32.544 64.8 32.544 66.72C32.544 68.448 32.288 70.816 31.776 73.824L32.672 73.696C33.7387 73.5253 34.9333 73.2053 36.256 72.736C36.6613 70.8587 37.2907 69.0987 38.144 67.456C38.9973 65.792 39.9573 64.4693 41.024 63.488C42.0907 62.4853 43.1467 61.984 44.192 61.984C45.024 61.984 45.6533 62.2507 46.08 62.784C46.528 63.296 46.752 64.0533 46.752 65.056C46.752 66.8907 46.208 68.6187 45.12 70.24C44.032 71.8613 42.5067 73.248 40.544 74.4C40.48 75.0613 40.448 75.7333 40.448 76.416C40.448 78.9333 40.9387 80.896 41.92 82.304C42.9227 83.6907 44.32 84.384 46.112 84.384C47.7547 84.384 49.216 83.8933 50.496 82.912C51.776 81.9093 52.768 80.5227 53.472 78.752C54.1973 76.9813 54.56 74.976 54.56 72.736C54.56 70.048 54.1653 68.032 53.376 66.688C52.608 65.344 51.392 64.5867 49.728 64.416C48.8533 64.3093 48.416 63.7547 48.416 62.752C48.416 62.24 48.576 61.824 48.896 61.504C49.2373 61.1627 49.6533 60.992 50.144 60.992ZM43.424 65.248C43.0827 65.248 42.72 65.664 42.336 66.496C41.952 67.328 41.6 68.4053 41.28 69.728C42.048 69.0453 42.6453 68.352 43.072 67.648C43.4987 66.9227 43.712 66.2293 43.712 65.568C43.712 65.3547 43.616 65.248 43.424 65.248Z" fill="#D16464"/>
<path d="M9.76 19.56C9.6 20.12 9.4 20.8 9.24 21.44C8.72 24.04 7.92 30.12 8.16 33.24C10.8 26.36 17.4 21.76 24.36 21.76C31.84 21.76 36.24 26.44 36.24 32.4C36.24 38.92 32.2 44 23.96 44C19.36 44 15.12 41.44 12.92 36.96L14.84 34.72C16.68 38.64 19.56 40.96 24 40.96C29.56 40.96 33.2 37.76 33.2 32.48C33.2 28.12 30.36 24.44 24.28 24.44C15.88 24.44 10.44 31.36 9.08 37.08C8.92 37.8 8.76 38.68 8.8 39.56C8.88 40.4 9.12 42.28 9.36 43.32L6.56 43.76C5.84 41.2 5.24 37.16 5.24 33.36C5.24 28.88 6.08 23.36 6.28 21.12C6.36 20.44 6.4 19.8 6.36 19.32L9.76 19.56ZM23.56 16.28C24.16 19.12 24.96 25.04 24.96 30.92C24.96 39.24 23.28 46.36 16.88 50.56L13.96 48.8C20.2 45.4 21.96 38.76 21.96 30.96C21.96 25.8 21.36 20.96 20.92 18.84C20.72 18 20.48 16.96 20.24 16.4L23.56 16.28Z" fill="#D16464"/>
<path d="M38.7191 45.6654C38.5316 45.4779 38.2772 45.3725 38.012 45.3725C37.7468 45.3725 37.4924 45.4779 37.3049 45.6654C37.1173 45.8529 37.012 46.1073 37.012 46.3725C37.012 46.6377 37.1173 46.8921 37.3049 47.0796L41.2548 51.0295H39.4262C39.164 51.0341 38.9141 51.1414 38.7304 51.3284C38.5466 51.5154 38.4436 51.7671 38.4436 52.0294C38.4436 52.2916 38.5466 52.5433 38.7304 52.7303C38.9141 52.9173 39.164 53.0246 39.4262 53.0292L43.6688 53.0292C43.934 53.0292 44.1883 52.9238 44.3758 52.7363C44.5633 52.5488 44.6687 52.2945 44.6687 52.0294L44.6687 47.7867C44.671 47.6539 44.6468 47.5221 44.5976 47.3987C44.5484 47.2754 44.4751 47.1631 44.3821 47.0684C44.289 46.9737 44.178 46.8985 44.0555 46.8471C43.9331 46.7958 43.8016 46.7693 43.6688 46.7693C43.5361 46.7693 43.4046 46.7958 43.2821 46.8471C43.1597 46.8985 43.0487 46.9737 42.9556 47.0684C42.8625 47.1631 42.7893 47.2754 42.7401 47.3987C42.6908 47.5221 42.6667 47.6539 42.669 47.7867L42.669 49.6153L38.7191 45.6654ZM34.4765 55.5649C34.664 55.7524 34.9183 55.8578 35.1836 55.8578C35.4488 55.8578 35.7031 55.7524 35.8907 55.5649C36.0782 55.3774 36.1836 55.123 36.1836 54.8578C36.1836 54.5926 36.0782 54.3382 35.8907 54.1507L31.9408 50.2008L33.7693 50.2008C33.9021 50.2031 34.034 50.1789 34.1573 50.1297C34.2807 50.0805 34.393 50.0072 34.4877 49.9142C34.5824 49.8211 34.6576 49.7101 34.7089 49.5876C34.7603 49.4652 34.7867 49.3337 34.7867 49.2009C34.7867 49.0681 34.7603 48.9367 34.7089 48.8142C34.6576 48.6918 34.5824 48.5808 34.4877 48.4877C34.393 48.3946 34.2807 48.3213 34.1573 48.2721C34.034 48.2229 33.9021 48.1988 33.7693 48.2011L29.5267 48.2011C29.2615 48.2011 29.0072 48.3065 28.8198 48.494C28.6323 48.6815 28.5269 48.9358 28.5269 49.2009L28.5269 53.4436C28.5314 53.7057 28.6388 53.9556 28.8258 54.1394C29.0128 54.3232 29.2645 54.4262 29.5267 54.4262C29.7889 54.4262 30.0406 54.3232 30.2276 54.1394C30.4147 53.9556 30.522 53.7057 30.5266 53.4436L30.5266 51.615L34.4765 55.5649Z" fill="#D0D0D0"/>
<path d="M61.208 48.336C60.312 48.368 59.608 48.128 59.096 47.616C58.584 47.104 58.328 46.448 58.328 45.648C58.328 45.04 58.52 44.512 58.904 44.064C59.256 43.584 59.784 43.328 60.488 43.296L61.928 43.2C63.336 43.104 64.392 42.672 65.096 41.904C65.832 41.104 66.2 39.968 66.2 38.496V16.896C66.2 15.872 66.456 15.104 66.968 14.592C67.512 14.048 68.28 13.776 69.272 13.776C70.264 13.776 71.016 14.048 71.528 14.592C72.072 15.104 72.344 15.872 72.344 16.896V38.448C72.344 40.464 71.976 42.176 71.24 43.584C70.536 44.992 69.48 46.096 68.072 46.896C66.664 47.664 64.92 48.112 62.84 48.24L61.208 48.336ZM86.8168 48.48C85.1208 48.48 83.6008 48.16 82.2568 47.52C80.9448 46.848 79.9048 45.952 79.1367 44.832C78.4008 43.712 78.0328 42.448 78.0328 41.04C78.0328 39.312 78.4808 37.952 79.3768 36.96C80.2728 35.936 81.7288 35.2 83.7448 34.752C85.7608 34.304 88.4648 34.08 91.8568 34.08H94.2568V37.536H91.9048C89.9208 37.536 88.3368 37.632 87.1528 37.824C85.9688 38.016 85.1208 38.352 84.6088 38.832C84.1288 39.28 83.8888 39.92 83.8888 40.752C83.8888 41.808 84.2568 42.672 84.9928 43.344C85.7288 44.016 86.7528 44.352 88.0648 44.352C89.1208 44.352 90.0488 44.112 90.8488 43.632C91.6808 43.12 92.3368 42.432 92.8168 41.568C93.2968 40.704 93.5368 39.712 93.5368 38.592V33.072C93.5368 31.472 93.1848 30.32 92.4808 29.616C91.7768 28.912 90.5928 28.56 88.9288 28.56C88.0008 28.56 86.9928 28.672 85.9048 28.896C84.8488 29.12 83.7288 29.504 82.5448 30.048C81.9368 30.336 81.3928 30.416 80.9128 30.288C80.4648 30.16 80.1128 29.904 79.8568 29.52C79.6008 29.104 79.4728 28.656 79.4728 28.176C79.4728 27.696 79.6008 27.232 79.8568 26.784C80.1128 26.304 80.5448 25.952 81.1528 25.728C82.6248 25.12 84.0328 24.688 85.3768 24.432C86.7528 24.176 88.0008 24.048 89.1208 24.048C91.4248 24.048 93.3128 24.4 94.7848 25.104C96.2888 25.808 97.4088 26.88 98.1448 28.32C98.8808 29.728 99.2488 31.552 99.2488 33.792V45.312C99.2488 46.304 99.0088 47.072 98.5288 47.616C98.0488 48.128 97.3608 48.384 96.4648 48.384C95.5688 48.384 94.8648 48.128 94.3528 47.616C93.8728 47.072 93.6328 46.304 93.6328 45.312V43.008H94.0168C93.7928 44.128 93.3448 45.104 92.6728 45.936C92.0328 46.736 91.2168 47.36 90.2248 47.808C89.2328 48.256 88.0968 48.48 86.8168 48.48ZM108.411 48.384C107.419 48.384 106.651 48.128 106.107 47.616C105.595 47.072 105.339 46.304 105.339 45.312V27.168C105.339 26.176 105.595 25.424 106.107 24.912C106.619 24.4 107.339 24.144 108.267 24.144C109.195 24.144 109.915 24.4 110.427 24.912C110.939 25.424 111.195 26.176 111.195 27.168V30.192H110.715C111.163 28.272 112.043 26.816 113.355 25.824C114.667 24.832 116.411 24.24 118.587 24.048C119.259 23.984 119.787 24.16 120.171 24.576C120.587 24.96 120.827 25.568 120.891 26.4C120.955 27.2 120.763 27.856 120.315 28.368C119.899 28.848 119.259 29.136 118.395 29.232L117.339 29.328C115.387 29.52 113.915 30.128 112.923 31.152C111.931 32.144 111.435 33.552 111.435 35.376V45.312C111.435 46.304 111.179 47.072 110.667 47.616C110.155 48.128 109.403 48.384 108.411 48.384ZM132.785 48.48C130.737 48.48 128.929 47.984 127.361 46.992C125.825 46 124.625 44.592 123.761 42.768C122.897 40.912 122.465 38.736 122.465 36.24C122.465 33.712 122.897 31.552 123.761 29.76C124.625 27.936 125.825 26.528 127.361 25.536C128.929 24.544 130.737 24.048 132.785 24.048C134.737 24.048 136.433 24.528 137.873 25.488C139.345 26.448 140.337 27.712 140.849 29.28H140.321V16.8C140.321 15.808 140.577 15.056 141.089 14.544C141.601 14.032 142.337 13.776 143.297 13.776C144.257 13.776 144.993 14.032 145.505 14.544C146.049 15.056 146.321 15.808 146.321 16.8V45.312C146.321 46.304 146.065 47.072 145.553 47.616C145.041 48.128 144.305 48.384 143.345 48.384C142.385 48.384 141.649 48.128 141.137 47.616C140.625 47.072 140.369 46.304 140.369 45.312V41.568L140.897 43.008C140.417 44.672 139.441 46 137.969 46.992C136.497 47.984 134.769 48.48 132.785 48.48ZM134.465 43.92C135.649 43.92 136.689 43.632 137.585 43.056C138.481 42.48 139.169 41.632 139.649 40.512C140.161 39.36 140.417 37.936 140.417 36.24C140.417 33.68 139.873 31.776 138.785 30.528C137.697 29.248 136.257 28.608 134.465 28.608C133.281 28.608 132.241 28.896 131.345 29.472C130.449 30.016 129.745 30.864 129.233 32.016C128.753 33.136 128.513 34.544 128.513 36.24C128.513 38.768 129.057 40.688 130.145 42C131.233 43.28 132.673 43.92 134.465 43.92ZM155.518 48.336C154.558 48.336 153.822 48.048 153.31 47.472C152.798 46.896 152.542 46.096 152.542 45.072V27.456C152.542 26.4 152.798 25.6 153.31 25.056C153.822 24.48 154.558 24.192 155.518 24.192C156.478 24.192 157.214 24.48 157.726 25.056C158.27 25.6 158.542 26.4 158.542 27.456V45.072C158.542 46.096 158.286 46.896 157.774 47.472C157.262 48.048 156.51 48.336 155.518 48.336ZM155.518 19.728C154.398 19.728 153.518 19.456 152.878 18.912C152.27 18.336 151.966 17.552 151.966 16.56C151.966 15.536 152.27 14.752 152.878 14.208C153.518 13.664 154.398 13.392 155.518 13.392C156.67 13.392 157.55 13.664 158.158 14.208C158.766 14.752 159.07 15.536 159.07 16.56C159.07 17.552 158.766 18.336 158.158 18.912C157.55 19.456 156.67 19.728 155.518 19.728ZM175.624 48.48C173.16 48.48 171.016 47.984 169.192 46.992C167.368 45.968 165.96 44.528 164.968 42.672C163.976 40.816 163.48 38.64 163.48 36.144C163.48 34.256 163.752 32.576 164.296 31.104C164.872 29.6 165.688 28.336 166.744 27.312C167.8 26.256 169.08 25.456 170.584 24.912C172.088 24.336 173.768 24.048 175.624 24.048C176.68 24.048 177.816 24.192 179.032 24.48C180.28 24.768 181.448 25.248 182.536 25.92C183.048 26.24 183.384 26.624 183.544 27.072C183.704 27.52 183.736 27.984 183.64 28.464C183.544 28.912 183.336 29.312 183.016 29.664C182.728 29.984 182.36 30.192 181.912 30.288C181.464 30.352 180.968 30.24 180.424 29.952C179.72 29.536 179 29.232 178.264 29.04C177.528 28.816 176.824 28.704 176.152 28.704C175.096 28.704 174.168 28.88 173.368 29.232C172.568 29.552 171.88 30.032 171.304 30.672C170.76 31.28 170.344 32.048 170.056 32.976C169.768 33.904 169.624 34.976 169.624 36.192C169.624 38.56 170.184 40.432 171.304 41.808C172.456 43.152 174.072 43.824 176.152 43.824C176.824 43.824 177.512 43.728 178.216 43.536C178.952 43.344 179.688 43.04 180.424 42.624C180.968 42.336 181.448 42.24 181.864 42.336C182.312 42.432 182.68 42.656 182.968 43.008C183.256 43.328 183.432 43.728 183.496 44.208C183.56 44.656 183.496 45.104 183.304 45.552C183.144 46 182.824 46.368 182.344 46.656C181.288 47.296 180.168 47.76 178.984 48.048C177.8 48.336 176.68 48.48 175.624 48.48Z" fill="#D16464"/>
<path d="M81.608 82.252C81.128 82.252 80.744 82.108 80.456 81.82C80.192 81.532 80.06 81.136 80.06 80.632V58.06C80.06 57.508 80.192 57.088 80.456 56.8C80.72 56.512 81.068 56.368 81.5 56.368C81.908 56.368 82.22 56.44 82.436 56.584C82.652 56.728 82.892 56.98 83.156 57.34L98.42 77.572H97.52V57.988C97.52 57.46 97.652 57.064 97.916 56.8C98.204 56.512 98.6 56.368 99.104 56.368C99.608 56.368 99.992 56.512 100.256 56.8C100.52 57.064 100.652 57.46 100.652 57.988V80.632C100.652 81.136 100.52 81.532 100.256 81.82C100.016 82.108 99.692 82.252 99.284 82.252C98.9 82.252 98.576 82.168 98.312 82C98.072 81.856 97.82 81.604 97.556 81.244L82.328 61.012H83.156V80.632C83.156 81.136 83.024 81.532 82.76 81.82C82.496 82.108 82.112 82.252 81.608 82.252ZM114.412 82.324C112.516 82.324 110.884 81.964 109.516 81.244C108.172 80.5 107.128 79.456 106.384 78.112C105.64 76.744 105.268 75.136 105.268 73.288C105.268 71.464 105.628 69.868 106.348 68.5C107.092 67.132 108.1 66.064 109.372 65.296C110.668 64.528 112.144 64.144 113.8 64.144C114.976 64.144 116.032 64.348 116.968 64.756C117.928 65.14 118.744 65.704 119.416 66.448C120.088 67.192 120.592 68.104 120.928 69.184C121.288 70.24 121.468 71.44 121.468 72.784C121.468 73.168 121.348 73.468 121.108 73.684C120.892 73.876 120.568 73.972 120.136 73.972H107.824V71.884H119.308L118.696 72.388C118.696 71.14 118.504 70.084 118.12 69.22C117.76 68.332 117.22 67.66 116.5 67.204C115.804 66.748 114.928 66.52 113.872 66.52C112.72 66.52 111.736 66.796 110.92 67.348C110.104 67.876 109.48 68.632 109.048 69.616C108.616 70.576 108.4 71.692 108.4 72.964V73.18C108.4 75.34 108.916 76.972 109.948 78.076C110.98 79.18 112.468 79.732 114.412 79.732C115.18 79.732 115.96 79.636 116.752 79.444C117.568 79.252 118.348 78.904 119.092 78.4C119.452 78.184 119.776 78.088 120.064 78.112C120.376 78.112 120.628 78.208 120.82 78.4C121.012 78.568 121.132 78.784 121.18 79.048C121.228 79.288 121.192 79.552 121.072 79.84C120.952 80.128 120.724 80.38 120.388 80.596C119.596 81.148 118.648 81.58 117.544 81.892C116.464 82.18 115.42 82.324 114.412 82.324ZM132.994 82.324C131.266 82.324 129.766 81.952 128.494 81.208C127.222 80.464 126.238 79.408 125.542 78.04C124.846 76.672 124.498 75.064 124.498 73.216C124.498 71.824 124.69 70.576 125.074 69.472C125.482 68.344 126.058 67.384 126.802 66.592C127.546 65.8 128.434 65.2 129.466 64.792C130.522 64.36 131.698 64.144 132.994 64.144C134.722 64.144 136.222 64.516 137.494 65.26C138.766 66.004 139.75 67.06 140.446 68.428C141.142 69.772 141.49 71.368 141.49 73.216C141.49 74.608 141.286 75.868 140.878 76.996C140.494 78.124 139.93 79.084 139.186 79.876C138.442 80.668 137.542 81.28 136.486 81.712C135.454 82.12 134.29 82.324 132.994 82.324ZM132.994 79.732C134.05 79.732 134.962 79.48 135.73 78.976C136.522 78.472 137.122 77.74 137.53 76.78C137.962 75.82 138.178 74.632 138.178 73.216C138.178 71.104 137.71 69.496 136.774 68.392C135.838 67.288 134.578 66.736 132.994 66.736C131.962 66.736 131.05 66.988 130.258 67.492C129.49 67.972 128.89 68.692 128.458 69.652C128.026 70.612 127.81 71.8 127.81 73.216C127.81 75.328 128.278 76.948 129.214 78.076C130.174 79.18 131.434 79.732 132.994 79.732Z" fill="#D0D0D0"/>
</svg>
